<svg xmlns="http://www.w3.org/2000/svg" xmlns:xlink="http://www.w3.org/1999/xlink" width="103.332" height="103.522" viewBox="0 0 103.332 103.522">
  <defs>
    <linearGradient id="linear-gradient" x1="0.248" y1="-1.892" x2="0.752" y2="-1.026" gradientUnits="objectBoundingBox">
      <stop offset="0" stop-color="#00a092"/>
      <stop offset="0.082" stop-color="#1aa494"/>
      <stop offset="0.179" stop-color="#31a896"/>
      <stop offset="0.27" stop-color="#3faa98"/>
      <stop offset="0.348" stop-color="#44ab98"/>
      <stop offset="0.481" stop-color="#7cb49c"/>
      <stop offset="0.581" stop-color="#a9bca0"/>
      <stop offset="0.66" stop-color="#a6bba0"/>
      <stop offset="0.724" stop-color="#9cba9f"/>
      <stop offset="0.781" stop-color="#8bb79e"/>
      <stop offset="0.835" stop-color="#73b39c"/>
      <stop offset="0.887" stop-color="#55ae99"/>
      <stop offset="0.937" stop-color="#2fa896"/>
      <stop offset="0.985" stop-color="#04a192"/>
      <stop offset="0.989" stop-color="#00a092"/>
    </linearGradient>
  </defs>
  <g id="bayanat-h-v2" transform="translate(-27.095 -23.978)">
    <g id="Group_1" data-name="Group 1">
      <path id="Path_1" data-name="Path 1" d="M41.2,127.2a14.2,14.2,0,0,1-.3-28.4,61.719,61.719,0,0,0,7.4-.7c8.8-1.7,14.2-7.3,15.6-16.1a39.15,39.15,0,0,0,.5-5.9A14.619,14.619,0,0,1,79.1,61.3a29.656,29.656,0,0,0,7.3-.7c8.9-2.2,14.3-8.4,15.1-17.6.2-2,.3-4.1.4-6.1.4-7.2,6.9-13,14.5-12.9a14.558,14.558,0,0,1,14,13.2,14.382,14.382,0,0,1-14.9,15.5,29.713,29.713,0,0,0-7.3.8c-8.4,2.1-13.5,8-14.7,16.6-.3,2.5-.2,4.9-.5,7.4C92,84.9,86.1,89.9,78.6,90a30.779,30.779,0,0,0-8,1c-8.9,2.3-14.3,9.1-14.7,18.4a50.853,50.853,0,0,1-.4,5.5A13.81,13.81,0,0,1,41.2,127.2Z" fill="#00a092"/>
      <path id="Path_2" data-name="Path 2" d="M41.4,90A14.146,14.146,0,0,1,27.1,76.5,14.373,14.373,0,0,1,41.2,61.4a39.09,39.09,0,0,0,7.6-.7c9.6-2.2,15.2-9.1,15.6-19.4a33.934,33.934,0,0,1,.4-5.5A14.117,14.117,0,0,1,79.7,24a14.347,14.347,0,0,1,1.7,28.4c-2.7.5-5.5.2-8.2.7C62.4,54.9,56.1,62,55.8,72.9a43.612,43.612,0,0,1-.3,5.1A14.123,14.123,0,0,1,41.4,90Z" fill="#8fc3a0"/>
      <path id="Path_3" data-name="Path 3" d="M27.1,38.2A14.2,14.2,0,0,1,41.6,24,14.341,14.341,0,0,1,55.8,38.3,14.6,14.6,0,0,1,41.4,52.7,14.34,14.34,0,0,1,27.1,38.2Z" fill="#cad4b2"/>
      <path id="Path_4" data-name="Path 4" d="M116.1,98.8a14.35,14.35,0,0,1,.1,28.7,14.256,14.256,0,0,1-14.3-14.4A13.966,13.966,0,0,1,116.1,98.8Z" fill="url(#linear-gradient)"/>
      <path id="Path_5" data-name="Path 5" d="M116.1,98.8a14.35,14.35,0,0,1,.1,28.7,14.256,14.256,0,0,1-14.3-14.4A13.966,13.966,0,0,1,116.1,98.8Z" fill="#cad4b2"/>
      <path id="Path_6" data-name="Path 6" d="M78.6,127.3c-18.7-.1-18.6-28-.2-28.5,11.6.3,22.4-6.1,23.1-18.5-2.3-22,26.8-26.7,28.9-4.6-.7,13.4-10.8,14.1-21.5,15.1C82.7,96.2,103.8,125.5,78.6,127.3Z" fill="#8fc3a0"/>
    </g>
  </g>
</svg>
