<svg width="3239" height="592" xmlns="http://www.w3.org/2000/svg" xmlns:xlink="http://www.w3.org/1999/xlink"
  xml:space="preserve" overflow="hidden">
  <defs>
    <clipPath id="clip0">
      <rect x="554" y="572" width="3239" height="592" />
    </clipPath>
    <clipPath id="clip1">
      <path d="M849.338 694.555 1061.47 906.687 849.338 1118.82 637.206 906.687Z" fill-rule="nonzero"
        clip-rule="nonzero" />
    </clipPath>
    <clipPath id="clip2">
      <path d="M849.338 694.555 1061.47 906.687 849.338 1118.82 637.206 906.687Z" fill-rule="evenodd"
        clip-rule="evenodd" />
    </clipPath>
    <clipPath id="clip3">
      <path d="M849.338 694.555 1061.47 906.687 849.338 1118.82 637.206 906.687Z" fill-rule="evenodd"
        clip-rule="evenodd" />
    </clipPath>
    <clipPath id="clip4">
      <rect x="556" y="576" width="586" height="585" />
    </clipPath>
    <clipPath id="clip5">
      <rect x="556" y="576" width="586" height="585" />
    </clipPath>
    <clipPath id="clip6">
      <rect x="556" y="576" width="586" height="585" />
    </clipPath>
    <clipPath id="clip7">
      <rect x="764" y="779" width="170" height="172" />
    </clipPath>
    <clipPath id="clip8">
      <rect x="764" y="779" width="170" height="172" />
    </clipPath>
    <clipPath id="clip9">
      <rect x="764" y="779" width="170" height="172" />
    </clipPath>
  </defs>
  <g clip-path="url(#clip0)" transform="translate(-554 -572)">
    <text fill="#FFFFFF" fill-opacity="1"
      font-family="Franklin Gothic Medium,Franklin Gothic Medium_MSFontService,sans-serif" font-style="normal"
      font-variant="normal" font-weight="700" font-stretch="normal" font-size="220" text-anchor="start" direction="ltr"
      writing-mode="lr-tb" unicode-bidi="normal" text-decoration="none" transform="matrix(1 0 0 1 1135 975)">
      C A E S A R
      <tspan fill="#FFFFFF" fill-opacity="1"
        font-family="Franklin Gothic Medium,Franklin Gothic Medium_MSFontService,sans-serif" font-style="normal"
        font-variant="normal" font-weight="400" font-stretch="normal" font-size="83" text-anchor="start" direction="ltr"
        writing-mode="lr-tb" unicode-bidi="normal" text-decoration="none" x="1299.5" y="-100">Crowd</tspan>
      <tspan fill="#FFFFFF" fill-opacity="1"
        font-family="Franklin Gothic Medium,Franklin Gothic Medium_MSFontService,sans-serif" font-style="normal"
        font-variant="normal" font-weight="400" font-stretch="normal" font-size="83" text-anchor="start" direction="ltr"
        writing-mode="lr-tb" unicode-bidi="normal" text-decoration="none" x="1538.86" y="-100">-</tspan>
      <tspan fill="#FFFFFF" fill-opacity="1"
        font-family="Franklin Gothic Medium,Franklin Gothic Medium_MSFontService,sans-serif" font-style="normal"
        font-variant="normal" font-weight="400" font-stretch="normal" font-size="83" text-anchor="start" direction="ltr"
        writing-mode="lr-tb" unicode-bidi="normal" text-decoration="none" x="1563.91" y="-100">sourced Atrocities
        Evidence</tspan>
      <tspan fill="#FFFFFF" fill-opacity="1"
        font-family="Franklin Gothic Medium,Franklin Gothic Medium_MSFontService,sans-serif" font-style="normal"
        font-variant="normal" font-weight="400" font-stretch="normal" font-size="83" text-anchor="start" direction="ltr"
        writing-mode="lr-tb" unicode-bidi="normal" text-decoration="none" x="1303.21" y="-1">Synthesis and Analysis
        Repository</tspan>
    </text>
    <g clip-path="url(#clip1)">
      <g clip-path="url(#clip2)">
        <g clip-path="url(#clip3)">
          <path
            d="M871.214 1050.54 871.214 995.296C871.214 987.783 867.458 981.375 861.712 977.398L861.712 957.952C881.379 955.522 900.603 946.462 915.629 931.436 952.089 894.976 952.089 835.313 915.629 798.853 879.169 762.393 819.507 762.393 783.047 798.853 746.587 835.313 746.587 894.976 783.047 931.436 798.073 946.462 817.076 955.301 836.964 957.952L836.964 977.398C831.218 981.375 827.462 987.783 827.462 995.296L827.462 1050.54C827.462 1056.73 829.893 1062.25 833.87 1066.23 837.848 1070.21 843.372 1072.64 849.559 1072.64 861.491 1072.19 871.214 1062.47 871.214 1050.54ZM796.305 917.736C767.137 888.568 767.137 840.838 796.305 811.67 825.473 782.501 873.203 782.501 902.371 811.67 931.539 840.838 931.539 888.568 902.371 917.736 873.203 946.904 825.473 946.904 796.305 917.736Z"
            fill="#FFFFFF" fill-rule="nonzero" fill-opacity="1" />
        </g>
      </g>
    </g>
    <g clip-path="url(#clip4)">
      <g clip-path="url(#clip5)">
        <g clip-path="url(#clip6)">
          <path
            d="M182.812 411.937C201.703 411.937 219.984 409.5 237.656 404.015 215.719 380.25 187.687 363.187 156.609 354.047 143.203 350.39 129.797 349.172 115.781 349.172 96.8906 349.172 78.6093 351.609 60.9375 357.094 82.875 380.859 110.906 397.922 141.984 407.062 155.391 410.719 168.797 411.937 182.812 411.937ZM115.781 361.359C128.578 361.359 140.766 362.578 152.953 366.234 174.891 372.328 195 383.297 212.062 397.922 202.312 399.75 191.953 400.359 181.594 400.359 168.797 400.359 156.609 399.14 144.422 395.484 122.484 389.39 102.375 378.422 85.3125 363.797 95.6718 361.969 106.031 361.359 115.781 361.359Z"
            fill="#FFFFFF" fill-rule="nonzero" fill-opacity="1" transform="matrix(1 0 0 1 557 576)" />
          <path
            d="M184.031 348.562C176.719 316.875 160.875 288.234 138.937 264.469 115.172 242.531 86.5312 226.687 54.8437 219.375 62.1562 251.062 78 279.703 99.9375 303.469 123.703 325.406 152.344 341.25 184.031 348.562ZM130.406 273C146.25 289.453 157.828 308.953 165.75 330.281 144.422 322.359 124.922 310.781 108.469 294.937 92.625 278.484 81.0468 258.984 73.125 237.656 94.4531 245.578 113.953 257.766 130.406 273Z"
            fill="#FFFFFF" fill-rule="nonzero" fill-opacity="1" transform="matrix(1 0 0 1 557 576)" />
          <path
            d="M166.969 275.437C176.109 244.359 177.328 211.453 170.016 179.766 160.875 148.687 143.812 120.656 120.047 98.7187 110.906 129.797 109.687 162.703 117 194.391 126.141 225.469 143.203 253.5 166.969 275.437ZM126.75 123.703C141.375 140.766 151.734 161.484 158.437 182.812 163.922 204.75 164.531 227.906 160.266 250.453 145.641 233.391 135.281 212.672 128.578 191.344 123.703 169.406 122.484 146.25 126.75 123.703Z"
            fill="#FFFFFF" fill-rule="nonzero" fill-opacity="1" transform="matrix(1 0 0 1 557 576)" />
          <path
            d="M243.141 147.469C250.453 115.781 249.234 82.875 240.094 51.7969 216.328 73.7343 199.266 101.766 190.125 132.844 182.812 164.531 184.031 197.437 193.172 228.516 216.328 206.578 234 178.547 243.141 147.469ZM201.703 135.891C207.797 113.953 218.766 93.8437 233.391 76.7812 237.656 99.3281 236.437 121.875 231.562 144.422 225.469 166.359 214.5 186.469 199.875 203.531 195.609 180.984 196.828 157.828 201.703 135.891Z"
            fill="#FFFFFF" fill-rule="nonzero" fill-opacity="1" transform="matrix(1 0 0 1 557 576)" />
          <path
            d="M428.39 354.047C397.312 363.187 369.281 380.25 347.344 404.015 365.015 409.5 383.906 411.937 402.187 411.937 415.594 411.937 429.609 410.109 443.015 407.062 474.094 397.922 502.125 380.859 524.062 357.094 506.39 351.609 488.109 348.562 469.219 348.562 455.203 348.562 441.797 350.39 428.39 354.047ZM439.969 395.484C427.781 398.531 414.984 400.359 402.797 400.359 392.437 400.359 382.687 399.75 372.328 397.922 389.39 383.297 410.109 372.328 431.437 366.234 443.625 363.187 456.422 361.359 469.219 361.359 479.578 361.359 489.328 362.578 499.687 363.797 482.015 378.422 461.906 389.39 439.969 395.484Z"
            fill="#FFFFFF" fill-rule="nonzero" fill-opacity="1" transform="matrix(1 0 0 1 557 576)" />
          <path
            d="M530.156 219.375C498.469 226.687 469.828 242.531 446.062 264.469 423.515 288.234 408.281 316.875 400.969 348.562 432.656 341.25 461.297 325.406 485.062 303.469 507 279.703 522.844 251.062 530.156 219.375ZM419.25 330.281C427.172 308.953 438.75 289.453 454.594 273 471.047 257.156 490.547 245.578 511.875 237.656 503.953 258.984 492.375 278.484 476.531 294.937 460.078 310.172 440.578 322.359 419.25 330.281Z"
            fill="#FFFFFF" fill-rule="nonzero" fill-opacity="1" transform="matrix(1 0 0 1 557 576)" />
          <path
            d="M468.609 194.391C475.922 162.703 474.703 129.797 465.562 98.7187 441.797 120.656 424.734 148.687 415.594 179.766 408.281 211.453 409.5 244.359 418.64 275.437 441.797 253.5 459.469 225.469 468.609 194.391ZM427.172 182.812C433.265 160.875 444.234 140.766 458.859 123.703 463.125 146.25 461.906 169.406 457.031 191.344 450.937 213.281 439.969 233.391 425.344 250.453 421.078 227.906 422.297 204.75 427.172 182.812Z"
            fill="#FFFFFF" fill-rule="nonzero" fill-opacity="1" transform="matrix(1 0 0 1 557 576)" />
          <path
            d="M392.437 228.516C401.578 197.437 402.797 164.531 395.484 132.844 386.344 101.766 369.281 73.7343 345.515 51.7969 336.375 82.875 335.156 115.781 342.469 147.469 351.609 178.547 368.672 206.578 392.437 228.516ZM352.219 76.7812C366.844 93.8437 377.812 114.562 383.906 135.891 389.39 157.828 390 180.984 385.734 203.531 371.109 186.469 360.75 166.359 354.047 144.422 349.172 123.703 347.953 102.375 351 81.6562 351.609 79.8281 352.219 76.7812 352.219 76.7812Z"
            fill="#FFFFFF" fill-rule="nonzero" fill-opacity="1" transform="matrix(1 0 0 1 557 576)" />
          <path
            d="M379.031 424.125C365.625 420.469 351.609 418.64 337.594 418.64 328.453 418.64 319.922 419.25 310.781 420.469 299.812 411.937 284.578 411.937 273.609 420.469 264.469 419.25 255.328 418.64 245.578 418.64 232.172 418.64 218.766 420.469 205.359 423.515 174.281 432.656 146.25 449.719 124.312 473.484 141.984 478.969 160.875 481.406 179.156 481.406 192.562 481.406 206.578 479.578 219.984 476.531 227.906 474.094 235.828 471.656 243.141 468 234 482.015 221.203 492.984 205.969 499.078L219.984 532.594C252.891 518.578 266.906 497.859 279.703 479.578 280.922 477.75 282.141 475.922 283.969 474.094 289.453 475.922 295.547 475.922 301.031 474.094 302.25 475.922 304.078 477.75 305.297 480.187 317.484 498.469 331.5 519.187 365.015 533.203L379.031 499.687C363.797 493.594 351 482.625 341.859 468.609 349.172 471.656 357.094 474.703 365.015 477.14 378.422 480.797 391.828 482.015 405.844 482.015 424.734 482.015 443.015 479.578 460.687 474.094 438.75 450.328 410.109 433.265 379.031 424.125ZM238.266 457.031C231.562 460.078 224.25 462.515 217.547 464.953 205.359 468 193.172 469.828 180.375 469.219 170.016 469.219 160.266 468.609 149.906 466.781 166.969 452.156 187.078 441.187 209.016 435.094 221.203 432.047 233.391 430.828 246.187 430.828 252.281 430.828 258.984 431.437 265.078 432.047 263.25 436.312 262.031 440.578 262.031 444.844 262.031 444.844 262.031 445.453 262.031 445.453L238.266 457.031ZM271.781 470.437 269.953 472.875 269.344 474.094C258.984 489.328 248.016 504.562 226.687 516.14L221.812 505.172C234.609 497.859 244.969 487.5 253.5 475.312L265.078 458.859C266.906 462.515 269.953 466.172 273 468.609 273 469.219 272.391 469.828 271.781 470.437ZM274.219 444.844C274.219 434.484 282.141 426.562 292.5 426.562 302.859 426.562 310.781 434.484 310.781 444.844 310.781 455.203 302.859 463.125 292.5 463.125 282.141 463.125 274.219 455.203 274.219 444.844ZM363.797 505.172 359.531 516.14C336.984 503.953 326.625 488.109 316.265 472.875 315.047 471.047 313.828 469.828 312.609 468 315.656 464.953 318.703 461.906 320.531 457.64L333.328 475.312C340.64 487.5 351.609 497.859 363.797 505.172ZM406.453 469.219C393.656 469.219 381.469 468 369.281 464.953 361.969 462.515 354.656 460.078 347.344 457.031L322.969 446.672C322.969 446.062 322.969 445.453 322.969 444.844 322.969 440.578 321.75 436.312 319.922 432.047 326.015 431.437 331.5 430.828 337.594 430.828 350.39 430.828 363.187 432.656 375.984 435.703 397.922 441.797 418.031 452.156 435.703 466.781 425.953 468.609 416.203 469.219 406.453 469.219Z"
            fill="#FFFFFF" fill-rule="nonzero" fill-opacity="1" transform="matrix(1 0 0 1 557 576)" />
        </g>
      </g>
    </g>
    <g clip-path="url(#clip7)">
      <g clip-path="url(#clip8)">
        <g clip-path="url(#clip9)">
          <path
            d="M94.1824 139.953C105.625 125.87 118.3 108.09 119.532 88.0209L140.657 88.0209C139.073 114.251 119.532 135.552 94.1824 139.953ZM28.3427 88.0209 49.4677 88.0209C50.8761 108.09 63.375 125.87 74.8178 139.953 49.4677 135.552 29.9271 114.251 28.3427 88.0209ZM74.8178 29.0469C63.375 43.1302 50.7 60.9105 49.4677 80.9792L28.3427 80.9792C29.9271 54.749 49.4677 33.4479 74.8178 29.0469ZM88.0209 88.0209 112.491 88.0209C111.082 106.153 99.2876 122.525 88.0209 136.432L88.0209 88.0209ZM80.9792 88.0209 80.9792 136.432C69.7126 122.525 57.9178 106.153 56.5094 88.0209L80.9792 88.0209ZM88.0209 32.5677C99.2876 46.475 111.082 62.6709 112.491 80.9792L88.0209 80.9792 88.0209 32.5677ZM80.9792 80.9792 56.5094 80.9792C57.9178 62.8469 69.7126 46.475 80.9792 32.5677L80.9792 80.9792ZM140.657 80.9792 119.532 80.9792C118.3 60.9105 105.625 43.1302 94.1824 29.0469 119.532 33.4479 139.073 54.749 140.657 80.9792ZM84.5001 17.6042C47.5313 17.6042 17.6042 47.5313 17.6042 84.5001 17.6042 121.469 47.5313 151.396 84.5001 151.396 121.469 151.396 151.396 121.469 151.396 84.5001 151.396 47.5313 121.469 17.6042 84.5001 17.6042Z"
            fill="#FFFFFF" fill-rule="nonzero" fill-opacity="1" transform="matrix(1 0 0 1.00592 765 780)" />
        </g>
      </g>
    </g>
    <path d="M2390 762 2390 1028.58" stroke="#FFFFFF" stroke-width="13.75" stroke-linecap="butt" stroke-linejoin="miter"
      stroke-miterlimit="8" stroke-opacity="1" fill="none" fill-rule="evenodd" />
  </g>
</svg>