<?xml version="1.0" standalone="no"?>
<!DOCTYPE svg PUBLIC "-//W3C//DTD SVG 20010904//EN"
 "http://www.w3.org/TR/2001/REC-SVG-20010904/DTD/svg10.dtd">
<svg version="1.0" xmlns="http://www.w3.org/2000/svg"
 width="350.000000pt" height="350.000000pt" viewBox="0 0 350.000000 350.000000"
 preserveAspectRatio="xMidYMid meet">
<metadata>
Created by potrace 1.14, written by Peter Selinger 2001-2017
</metadata>
<g transform="translate(0.000000,350.000000) scale(0.100000,-0.100000)"
fill="#000000" stroke="none">
<path d="M2451 3472 c-64 -40 -86 -74 -85 -132 1 -27 5 -55 11 -62 6 -7 39
-67 73 -133 121 -228 137 -248 209 -247 32 1 41 -3 46 -19 4 -11 5 -22 3 -23
-1 -1 -33 -19 -69 -39 -102 -56 -120 -114 -69 -218 46 -94 125 -115 226 -58
81 44 103 30 65 -44 -26 -51 -19 -84 41 -197 28 -52 69 -129 91 -170 50 -94
71 -117 118 -131 61 -19 166 27 196 85 34 65 23 95 -148 413 -35 66 -70 94
-120 98 -27 2 -48 10 -56 21 -12 16 -7 21 50 51 114 61 140 121 91 217 -54
107 -121 127 -231 69 -63 -33 -67 -34 -80 -17 -11 15 -11 20 1 33 19 22 30 61
27 96 -4 41 -189 387 -220 410 -15 11 -45 20 -75 22 -41 2 -59 -3 -95 -25z
m128 -147 c15 -28 54 -101 86 -162 58 -110 59 -113 40 -127 -11 -9 -27 -15
-35 -16 -16 0 -21 9 -126 207 l-65 122 28 15 c15 8 32 14 36 13 5 -2 21 -25
36 -52z m540 -1011 c45 -83 81 -156 81 -161 0 -15 -45 -42 -57 -35 -5 4 -31
48 -58 97 -26 50 -63 118 -82 152 -18 34 -33 67 -33 72 0 14 53 41 62 33 4 -4
43 -75 87 -158z"/>
<path d="M1349 3406 c-2 -2 -22 -6 -44 -9 -210 -29 -473 -147 -651 -292 -224
-183 -397 -471 -459 -766 -95 -448 48 -939 372 -1273 227 -233 510 -375 838
-420 17 -3 38 -5 47 -5 15 -1 17 -20 15 -223 l-2 -223 -255 -1 c-314 -2 -286
1 -315 -29 -28 -27 -34 -88 -12 -116 29 -38 39 -39 677 -39 569 0 624 1 651
17 51 30 52 117 2 150 -23 16 -58 18 -287 19 -144 1 -264 2 -268 3 -3 0 -6
100 -6 221 l1 219 46 6 c123 16 127 17 224 44 266 73 558 270 718 483 62 83
137 230 146 285 11 65 -29 113 -96 113 -34 0 -48 -15 -96 -107 -163 -314 -400
-512 -727 -607 -188 -54 -388 -55 -603 -1 -38 10 -77 21 -85 26 -8 4 -51 22
-94 40 -306 128 -572 426 -680 764 -42 133 -51 194 -51 365 0 188 18 288 78
445 137 359 431 616 818 715 108 28 275 34 384 13 121 -22 145 -20 177 16 29
33 31 58 9 100 -17 31 -40 39 -143 55 -83 12 -320 21 -329 12z"/>
<path d="M1460 2999 c-93 -12 -112 -17 -136 -40 -48 -45 -20 -132 45 -142 12
-2 52 2 87 8 232 44 500 -43 678 -220 225 -224 293 -566 172 -865 -53 -130
-168 -269 -292 -352 -58 -39 -75 -61 -79 -103 -2 -22 26 -64 47 -71 50 -17 91
-2 179 67 349 272 469 733 299 1142 -88 211 -274 402 -487 499 -146 66 -357
98 -513 77z"/>
<path d="M1075 2872 c-65 -14 -258 -188 -327 -292 -122 -188 -169 -355 -163
-580 4 -175 41 -303 130 -455 129 -219 362 -391 605 -444 89 -20 116 -23 198
-25 90 -3 233 16 269 35 29 16 47 68 34 100 -20 54 -51 61 -179 42 -225 -34
-479 50 -648 214 -155 150 -236 338 -240 558 -5 273 120 510 356 673 63 44 81
82 59 128 -15 30 -62 53 -94 46z"/>
</g>
</svg>
